<svg width="30" height="30" viewBox="0 0 30 30" fill="none" xmlns="http://www.w3.org/2000/svg">
<path fill-rule="evenodd" clip-rule="evenodd" d="M10.5696 7.56263C10.5696 5.19569 12.4884 3.27691 14.8553 3.27691C17.2223 3.27691 19.141 5.19569 19.141 7.56263C19.141 9.92956 17.2223 11.8483 14.8553 11.8483C12.4884 11.8483 10.5696 9.92956 10.5696 7.56263ZM14.8553 0.419769C10.9104 0.419769 7.71246 3.61774 7.71246 7.56263C7.71246 11.5075 10.9104 14.7055 14.8553 14.7055C18.8002 14.7055 21.9982 11.5075 21.9982 7.56263C21.9982 3.61774 18.8002 0.419769 14.8553 0.419769ZM9.14109 17.5626C7.24668 17.5626 5.42987 18.3152 4.09032 19.6547C2.75078 20.9943 1.99823 22.8111 1.99823 24.7055V27.5626C1.99823 28.3516 2.63782 28.9912 3.4268 28.9912C4.21578 28.9912 4.85537 28.3516 4.85537 27.5626V24.7055C4.85537 23.5688 5.3069 22.4788 6.11063 21.675C6.91436 20.8713 8.00445 20.4198 9.14109 20.4198H20.5697C21.7063 20.4198 22.7964 20.8713 23.6001 21.675C24.4038 22.4788 24.8554 23.5688 24.8554 24.7055V27.5626C24.8554 28.3516 25.495 28.9912 26.2839 28.9912C27.0729 28.9912 27.7125 28.3516 27.7125 27.5626V24.7055C27.7125 22.8111 26.96 20.9943 25.6204 19.6547C24.2809 18.3152 22.4641 17.5626 20.5697 17.5626H9.14109Z" fill="url(#paint0_linear_6_28)"/>
<defs>
<linearGradient id="paint0_linear_6_28" x1="14.8554" y1="0.419769" x2="14.8554" y2="28.9912" gradientUnits="userSpaceOnUse">
<stop stop-color="white"/>
<stop offset="1" stop-color="#999999"/>
</linearGradient>
</defs>
</svg>
